<svg width="30" height="30" viewBox="0 0 30 30" fill="none" xmlns="http://www.w3.org/2000/svg">
<path fill-rule="evenodd" clip-rule="evenodd" d="M30 15.0893C29.9995 12.2052 29.1776 9.38171 27.6318 6.95301C26.0859 4.5243 23.8808 2.5921 21.2774 1.38515C18.674 0.178197 15.7814 -0.252957 12.9421 0.142718C10.1027 0.538394 7.4355 1.74433 5.25617 3.61777C3.07684 5.49121 1.47667 7.95369 0.645089 10.7137C-0.186492 13.4737 -0.214658 16.4157 0.563928 19.1913C1.34251 21.9669 2.89525 24.4599 5.03831 26.3753C7.18137 28.2906 9.82502 29.548 12.6563 29.9986V19.4531H8.84667V15.0893H12.6563V11.7636C12.6563 7.98186 14.8962 5.89122 18.3221 5.89122C19.4472 5.90699 20.5696 6.00562 21.6804 6.18633V9.9007H19.7879C19.4655 9.85777 19.1377 9.88832 18.8286 9.99011C18.5195 10.0919 18.2372 10.2623 18.0024 10.4888C17.7676 10.7152 17.5865 10.9918 17.4724 11.2982C17.3583 11.6046 17.314 11.9329 17.3431 12.2588V15.0899H21.5029L20.8386 19.4538H17.3431V30C20.8717 29.4377 24.0851 27.627 26.4053 24.8937C28.7255 22.1604 30.0001 18.6837 30 15.0892V15.0893Z" fill="white"/>
</svg>
