<svg width="31" height="30" viewBox="0 0 31 30" fill="none" xmlns="http://www.w3.org/2000/svg">
<path d="M21.7855 0H9.21987C6.88897 0.00674426 4.6555 0.930811 3.0073 2.57033C1.3591 4.20986 0.430125 6.43159 0.42334 8.75022V21.2498C0.430125 23.5684 1.3591 25.7901 3.0073 27.4297C4.6555 29.0692 6.88897 29.9933 9.21987 30H21.7855C24.1164 29.9932 26.3499 29.0692 27.9981 27.4296C29.6463 25.7901 30.5753 23.5684 30.5821 21.2498V8.75022C30.5753 6.4316 29.6463 4.20987 27.9981 2.57035C26.3499 0.930827 24.1164 0.00675827 21.7855 0Z" fill="white"/>
<path d="M23.6704 8.75029C23.1719 8.74922 22.6942 8.55134 22.3423 8.20015C21.9903 7.84895 21.793 7.37314 21.7935 6.87727C21.7941 6.3814 21.9925 5.90603 22.3451 5.55559C22.6978 5.20514 23.1759 5.0083 23.6744 5.0083C24.1729 5.0083 24.651 5.20514 25.0037 5.55559C25.3564 5.90603 25.5547 6.3814 25.5553 6.87727C25.5558 7.37314 25.3584 7.84895 25.0065 8.20015C24.6546 8.55134 24.177 8.74922 23.6785 8.75029H23.6704Z" fill="#1B1B22"/>
<path d="M15.5025 9.99978C16.4967 9.99978 17.4685 10.293 18.2952 10.8425C19.1218 11.3919 19.7661 12.1728 20.1465 13.0865C20.527 14.0002 20.6265 15.0055 20.4326 15.9755C20.2386 16.9454 19.7598 17.8364 19.0568 18.5357C18.3539 19.235 17.4582 19.7112 16.4831 19.9041C15.508 20.0971 14.4974 19.998 13.5789 19.6196C12.6604 19.2411 11.8753 18.6002 11.323 17.778C10.7706 16.9557 10.4758 15.9889 10.4758 15C10.4758 14.3434 10.6058 13.6931 10.8585 13.0865C11.1111 12.4798 11.4813 11.9286 11.9481 11.4643C12.4149 11 12.969 10.6317 13.5789 10.3804C14.1887 10.1291 14.8424 9.99977 15.5025 9.99978ZM15.5025 7.5C14.0113 7.49999 12.5536 7.93986 11.3137 8.76397C10.0738 9.58807 9.1074 10.7594 8.53673 12.1298C7.96607 13.5003 7.81672 15.0083 8.10763 16.4632C8.39855 17.918 9.11665 19.2544 10.1711 20.3033C11.2255 21.3522 12.569 22.0665 14.0315 22.3559C15.4941 22.6453 17.0101 22.4967 18.3878 21.9291C19.7655 21.3614 20.943 20.4002 21.7715 19.1668C22.6 17.9334 23.0421 16.4834 23.0421 15C23.0421 13.0109 22.2478 11.1033 20.8338 9.69673C19.4198 8.29021 17.5021 7.50004 15.5025 7.50003V7.5Z" fill="#1B1B22"/>
</svg>
