<svg width="30" height="30" viewBox="0 0 30 30" fill="none" xmlns="http://www.w3.org/2000/svg">
<g clip-path="url(#clip0)">
<path d="M29.7506 5.48106C29.5497 5.34483 29.2835 5.35221 29.0893 5.49866C28.8345 5.69166 28.4201 5.84492 27.9739 5.96298C29.1359 4.66083 29.1609 3.79122 29.1484 3.59141C29.1353 3.38479 29.011 3.20145 28.8237 3.11346C28.6358 3.02491 28.4156 3.04648 28.2481 3.16796C26.9408 4.11818 25.6387 4.31855 24.8644 4.33899C23.6758 3.20145 22.1324 2.57819 20.4897 2.57819C16.9726 2.57819 14.1118 5.47766 14.1118 9.04126C14.1118 9.34778 14.1333 9.65374 14.1759 9.95685C8.08066 9.88817 3.13089 4.04779 3.07981 3.98705C2.9606 3.84514 2.7801 3.76908 2.59505 3.78554C2.41 3.80144 2.24482 3.90645 2.15229 4.06766C0.398306 7.11017 1.57217 9.78259 2.645 11.3129C2.45541 11.2119 2.30158 11.112 2.20962 11.0444C2.03933 10.9173 1.81171 10.8963 1.61985 10.9905C1.42856 11.0847 1.30652 11.2777 1.30255 11.4906C1.25543 14.3901 2.65068 16.051 3.96304 16.9694C3.78821 16.9529 3.61054 17.0176 3.48907 17.1499C3.35284 17.2981 3.30459 17.5075 3.36362 17.6999C4.27013 20.667 6.49583 21.6751 7.91207 22.0174C5.00011 24.2845 0.714478 23.5545 0.667364 23.5466C0.408523 23.5006 0.153088 23.6368 0.0475082 23.8769C-0.057504 24.1165 0.0140179 24.3975 0.222907 24.5564C3.29664 26.9024 6.97321 27.4218 9.6286 27.4218C11.6375 27.4218 13.0628 27.1244 13.199 27.0943C26.6508 23.9064 27.0294 11.5848 26.9982 9.56575C29.5236 7.21745 29.9181 6.32286 29.9788 6.10149C30.0441 5.86705 29.9521 5.6173 29.7506 5.48106ZM26.0394 8.90673C25.9129 9.0231 25.8465 9.19055 25.8578 9.36254C25.8936 9.90747 26.5815 22.757 12.9487 25.9874C12.8868 26.0004 7.46761 27.1312 2.76988 24.8039C4.75489 24.7488 7.60101 24.2289 9.58375 22.0026C9.73361 21.8352 9.76994 21.5945 9.67684 21.3901C9.58489 21.1875 9.38224 21.0575 9.1603 21.0575C9.1586 21.0575 9.15632 21.0575 9.15462 21.0575C9.12624 21.0757 6.1456 21.0541 4.781 18.2188C5.33047 18.25 6.00823 18.2159 6.54805 17.9673C6.77056 17.8646 6.90168 17.6313 6.87444 17.3877C6.84719 17.1448 6.66668 16.9467 6.42714 16.8962C6.27445 16.8638 2.95606 16.1219 2.49174 12.5021C2.99523 12.7224 3.63949 12.9023 4.27638 12.8052C4.49548 12.7723 4.67486 12.6151 4.73673 12.4022C4.7986 12.1894 4.73105 11.96 4.5636 11.8147C4.42169 11.691 1.30538 8.92149 2.78293 5.34937C4.38707 7.03241 9.13816 11.406 14.8945 11.0757C15.0631 11.066 15.2192 10.9809 15.3197 10.8446C15.4196 10.7084 15.4537 10.5347 15.4128 10.3707C15.3038 9.93642 15.2482 9.48912 15.2482 9.04183C15.2482 6.10376 17.6004 3.71402 20.4914 3.71402C21.9054 3.71402 23.2319 4.27825 24.2259 5.30339C24.3303 5.41125 24.4739 5.47312 24.6238 5.47596C25.2255 5.48447 26.2143 5.41352 27.3314 4.96565C27.009 5.36697 26.5356 5.84775 25.8391 6.39495C25.6421 6.54992 25.57 6.815 25.6614 7.0483C25.7528 7.28217 25.9889 7.42918 26.2353 7.40704C26.3675 7.39626 27.0419 7.33723 27.8042 7.17204C27.3876 7.61934 26.8182 8.19038 26.0394 8.90673Z" fill="white"/>
</g>
<defs>
<clipPath id="clip0">
<rect width="30" height="30" fill="white"/>
</clipPath>
</defs>
</svg>
